name Walk1_EMG.mot
datacolumns 17
datarows 30
range 4.41200000 4.44100000
endheader
                time	            vasmed_r	            vaslat_r	            recfem_r	               gra_r	               sar_r	            tibant_r	           perlong_r	            addmag_r	           semimem_r	          bicfemlh_r	            gasmed_r	            gaslat_r	               sol_r	               tfl_r	              gmed_r	              gmax_r	
          4.41200000	          0.00550889	          0.08657109	          0.28315166	          0.72951420	          0.49317303	          0.09791560	          0.17504295	          0.73230832	          0.29167364	          0.07559641	          0.03468849	          0.09384506	          0.01055043	          0.22825097	          0.15104948	          0.14007160	
          4.41300000	          0.00744182	          0.08917996	          0.28487481	          0.73907531	          0.49393525	          0.09822227	          0.17086404	          0.73685499	          0.29548142	          0.07524632	          0.03723851	          0.09336237	          0.01265659	          0.22812694	          0.15104056	          0.13994441	
          4.41400000	          0.00950745	          0.09171571	          0.28638978	          0.74797007	          0.49519092	          0.09856871	          0.16656924	          0.74086848	          0.29907889	          0.07486094	          0.03987633	          0.09291731	          0.01484345	          0.22802892	          0.15103501	          0.13987129	
          4.41500000	          0.01169127	          0.09416974	          0.28773141	          0.75619356	          0.49696614	          0.09896769	          0.16217178	          0.74433084	          0.30244249	          0.07444732	          0.04258566	          0.09250840	          0.01709800	          0.22795921	          0.15102931	          0.13984979	
          4.41600000	          0.01397932	          0.09653372	          0.28894064	          0.76374435	          0.49927883	          0.09943174	          0.15768500	          0.74722416	          0.30555101	          0.07401262	          0.04535040	          0.09213384	          0.01940808	          0.22792884	          0.15102219	          0.13987734	
          4.41700000	          0.01635804	          0.09879938	          0.29006122	          0.77062628	          0.50213731	          0.09997262	          0.15312287	          0.74953118	          0.30838596	          0.07356360	          0.04815453	          0.09179148	          0.02176213	          0.22795895	          0.15101482	          0.13995202	
          4.41800000	          0.01881401	          0.10095872	          0.29114061	          0.77684941	          0.50554532	          0.10060303	          0.14849996	          0.75123679	          0.31093106	          0.07310630	          0.05098257	          0.09147921	          0.02414883	          0.22807961	          0.15100992	          0.14007256	
          4.41900000	          0.02133393	          0.10300426	          0.29223926	          0.78242810	          0.50950925	          0.10133991	          0.14383104	          0.75232957	          0.31317203	          0.07264614	          0.05382010	          0.09119486	          0.02655701	          0.22832812	          0.15101060	          0.14023804	
          4.42000000	          0.02390465	          0.10492923	          0.29344008	          0.78737651	          0.51403958	          0.10220589	          0.13913052	          0.75280202	          0.31509646	          0.07218817	          0.05665394	          0.09093581	          0.02897570	          0.22874586	          0.15102009	          0.14044798	
          4.42100000	          0.02651334	          0.10672807	          0.29484567	          0.79170571	          0.51914666	          0.10322685	          0.13441241	          0.75264958	          0.31669355	          0.07173724	          0.05947232	          0.09069896	          0.03139440	          0.22937304	          0.15104152	          0.14070247	
          4.42200000	          0.02914758	          0.10839653	          0.29656260	          0.79542620	          0.52483597	          0.10442791	          0.12969047	          0.75186952	          0.31795430	          0.07129789	          0.06226511	          0.09048091	          0.03380311	          0.23024368	          0.15107730	          0.14100172	
          4.42300000	          0.03179550	          0.10993186	          0.29868489	          0.79855290	          0.53110480	          0.10583083	          0.12497857	          0.75046016	          0.31887192	          0.07087446	          0.06502371	          0.09027818	          0.03619223	          0.23138398	          0.15112847	          0.14134560	
          4.42400000	          0.03444576	          0.11133291	          0.30128668	          0.80110850	          0.53794208	          0.10745459	          0.12029052	          0.74842198	          0.31944186	          0.07047135	          0.06774074	          0.09008709	          0.03855266	          0.23281613	          0.15119447	          0.14173374	
          4.42500000	          0.03708756	          0.11259988	          0.30442372	          0.80312425	          0.54533088	          0.10931779	          0.11563950	          0.74576041	          0.31966129	          0.07009310	          0.07040969	          0.08990413	          0.04087592	          0.23456459	          0.15127312	          0.14216531	
          4.42600000	          0.03971069	          0.11373339	          0.30813883	          0.80463990	          0.55324960	          0.11143894	          0.11103770	          0.74248672	          0.31952893	          0.06974411	          0.07302476	          0.08972637	          0.04315419	          0.23665867	          0.15136094	          0.14263844	
          4.42700000	          0.04230557	          0.11473388	          0.31246747	          0.80570253	          0.56167060	          0.11383435	          0.10649647	          0.73861608	          0.31904577	          0.06942840	          0.07558061	          0.08955159	          0.04538024	          0.23913020	          0.15145344	          0.14315001	
          4.42800000	          0.04486328	          0.11560146	          0.31743976	          0.80636385	          0.57055852	          0.11651659	          0.10202669	          0.73416490	          0.31821543	          0.06914949	          0.07807210	          0.08937796	          0.04754733	          0.24201081	          0.15154532	          0.14369594	
          4.42900000	          0.04737547	          0.11633588	          0.32307782	          0.80667661	          0.57987442	          0.11949460	          0.09763863	          0.72914945	          0.31704377	          0.06891031	          0.08049420	          0.08920369	          0.04964935	          0.24533108	          0.15163074	          0.14427201	
          4.43000000	          0.04983439	          0.11693680	          0.32939182	          0.80669056	          0.58958773	          0.12277440	          0.09334164	          0.72358568	          0.31553841	          0.06871309	          0.08284199	          0.08902660	          0.05168083	          0.24912150	          0.15170371	          0.14487502	
          4.43100000	          0.05223283	          0.11740435	          0.33637819	          0.80644822	          0.59968541	          0.12635931	          0.08914404	          0.71748944	          0.31370807	          0.06855913	          0.08511052	          0.08884397	          0.05363696	          0.25341515	          0.15175811	          0.14550316	
          4.43200000	          0.05456410	          0.11773951	          0.34402100	          0.80598262	          0.61017033	          0.13024942	          0.08505323	          0.71087677	          0.31156197	          0.06844879	          0.08729460	          0.08865261	          0.05551359	          0.25824990	          0.15178770	          0.14615515	
          4.43300000	          0.05682198	          0.11794432	          0.35229575	          0.80531912	          0.62105341	          0.13444151	          0.08107592	          0.70376406	          0.30910949	          0.06838179	          0.08938929	          0.08844916	          0.05730721	          0.26366651	          0.15178628	          0.14682939	
          4.43400000	          0.05900078	          0.11802220	          0.36117239	          0.80447986	          0.63234581	          0.13893096	          0.07721836	          0.69616823	          0.30636019	          0.06835763	          0.09139081	          0.08823020	          0.05901467	          0.26970367	          0.15174813	          0.14752387	
          4.43500000	          0.06109532	          0.11797751	          0.37061539	          0.80348777	          0.64405289	          0.14371486	          0.07348678	          0.68810713	          0.30332397	          0.06837602	          0.09329711	          0.08799239	          0.06063317	          0.27639472	          0.15166826	          0.14823595	
          4.43600000	          0.06310091	          0.11781489	          0.38058264	          0.80236791	          0.65616943	          0.14879594	          0.06988758	          0.67960041	          0.30001140	          0.06843681	          0.09510752	          0.08773270	          0.06216038	          0.28376757	          0.15154228	          0.14896197	
          4.43700000	          0.06501323	          0.11753925	          0.39102622	          0.80114595	          0.66867654	          0.15418441	          0.06642691	          0.67067048	          0.29643448	          0.06853957	          0.09682206	          0.08744859	          0.06359485	          0.29184455	          0.15136624	          0.14969685	
          4.43800000	          0.06682847	          0.11715611	          0.40189518	          0.79984561	          0.68154054	          0.15989409	          0.06311013	          0.66134184	          0.29260712	          0.06868305	          0.09844138	          0.08713782	          0.06493647	          0.30063887	          0.15113699	          0.15043426	
          4.43900000	          0.06854344	          0.11667167	          0.41313702	          0.79848605	          0.69471447	          0.16593532	          0.05994152	          0.65163913	          0.28854437	          0.06886507	          0.09996728	          0.08679824	          0.06618640	          0.31015020	          0.15085251	          0.15116702	
          4.44000000	          0.07015573	          0.11609263	          0.42469601	          0.79707960	          0.70814141	          0.17231022	          0.05692454	          0.64158638	          0.28426135	          0.06908289	          0.10140241	          0.08642790	          0.06734648	          0.32036442	          0.15051178	          0.15188792	
          4.44100000	          0.07166375	          0.11542606	          0.43651086	          0.79563030	          0.72175835	          0.17901159	          0.05406178	          0.63120785	          0.27977319	          0.06933387	          0.10274928	          0.08602506	          0.06841878	          0.33125703	          0.15011502	          0.15259031	
